<?xml version="1.0" encoding="UTF-8"?>
<svg id="Layer_1" data-name="Layer 1" xmlns="http://www.w3.org/2000/svg" xmlns:xlink="http://www.w3.org/1999/xlink" viewBox="0 0 1092.77 189.96">
  <defs>
    <style>
      .cls-1 {
        fill: url(#linear-gradient-2);
      }

      .cls-2 {
        fill: url(#linear-gradient-3);
      }

      .cls-3 {
        fill: url(#linear-gradient);
      }

      .cls-4 {
        fill: #02183c;
      }
    </style>
    <linearGradient id="linear-gradient" x1="-81.04" y1="373.32" x2="45.44" y2="373.32" gradientTransform="translate(-5.95 -305.6) rotate(-15.83)" gradientUnits="userSpaceOnUse">
      <stop offset="0" stop-color="#f9eb2f"/>
      <stop offset=".85" stop-color="#f04337"/>
    </linearGradient>
    <linearGradient id="linear-gradient-2" x1="-60.61" y1="413.71" x2="34.98" y2="413.71" xlink:href="#linear-gradient"/>
    <linearGradient id="linear-gradient-3" x1="-39.93" y1="432.15" x2="12.54" y2="432.15" xlink:href="#linear-gradient"/>
  </defs>
  <g>
    <path class="cls-3" d="m27.93,108.59c-.17-4.21-.78-29.39,18.88-48.99,2.33-2.33,26.43-25.59,58.7-17.37,30.78,7.84,41.53,37.31,42.32,39.62.17-3.53,1.04-31.39-21.34-50.82-25.07-21.77-56.54-13.16-59.44-12.31-4.67,1.37-24.2,7.67-36.4,27.65-17.5,28.68-3.99,59.47-2.74,62.21Z"/>
    <path class="cls-1" d="m42.32,86.77c4.53-4.47,15.33-13.82,31.85-16.87,5.55-1.02,17.89-3.3,31.12,2.89,10.27,4.81,15.89,12.29,18.34,15.64,7.7,10.5,9.29,20.92,9.69,24.29,1.22,10.2-.95,18.36-2.44,22.68,3.41-4.04,11.53-14.76,12.77-30.43.15-1.84,1.89-30.22-21.27-46.76-20.14-14.38-42.56-7.93-45.04-7.17-26.34,8.06-34.42,33.7-35.02,35.73Z"/>
    <path class="cls-2" d="m63.62,79.8c3.72,2.52,8.73,6.47,13.61,12.27,8.63,10.28,11.74,20.34,12.41,22.62.8,2.72,3.55,12.78,1.8,25.9-1.23,9.16-4.18,16.26-6.46,20.78,3.95-.24,16.18-1.5,26.76-11.15,1.43-1.31,15.49-14.57,13.86-34.99-1.09-13.7-8.62-22.73-11.29-25.66-2.64-2.78-11.18-11.05-25.12-13.29-12.31-1.98-21.93,1.85-25.56,3.53Z"/>
  </g>
  <g>
    <path class="cls-4" d="m235.14,118.32h-38.36l-7.14,20.16h-23.24l37.38-99.26h25.62l36.96,99.26h-24.08l-7.14-20.16Zm-31.08-20.16h24.08l-11.9-34.3-12.18,34.3Z"/>
    <path class="cls-4" d="m278.54,138.48V39.22h62.86v20.86h-40.74v18.9h36.96v19.46h-36.96v19.04h40.88v21h-63Z"/>
    <path class="cls-4" d="m382.28,102.78v35.7h-22.12V39.22h37.38c20.16,0,34.02,13.3,34.02,31.78s-13.86,31.78-34.02,31.78h-15.26Zm13.02-19.04c8.4,0,14.14-4.9,14.14-12.6s-5.74-12.74-14.14-12.74h-12.88v25.34h12.88Z"/>
    <path class="cls-4" d="m445.28,138.48V39.22h22.4v99.26h-22.4Z"/>
    <path class="cls-4" d="m483.36,89.06c0-30.94,23.52-51.94,51.24-51.94,29.82,0,42.98,19.18,46.2,33.46l-20.86,6.58c-1.54-6.86-7.84-18.48-25.34-18.48-13.3,0-28.28,9.52-28.28,30.38,0,18.62,13.72,29.4,28.56,29.4,17.22,0,24.08-11.48,26.04-18.62l21.14,6.02c-3.22,13.72-16.38,34.72-47.18,34.72-28.56,0-51.52-20.58-51.52-51.52Z"/>
    <path class="cls-4" d="m722.34,138.48v-65.8l-25.9,65.8h-17.92l-25.9-64.96v64.96h-21V39.22h28.84l27.3,67.06,25.9-67.06h30.38v99.26h-21.7Z"/>
    <path class="cls-4" d="m765.6,138.48V39.22h62.86v20.86h-40.74v18.9h36.96v19.46h-36.96v19.04h40.88v21h-63Z"/>
    <path class="cls-4" d="m847.21,138.48V39.22h35.98c29.82,0,49.84,19.04,49.84,49.7s-20.02,49.56-49.98,49.56h-35.84Zm35-20.86c15.26,0,27.72-8.82,27.72-28.7s-12.46-28.84-27.72-28.84h-12.88v57.54h12.88Z"/>
    <path class="cls-4" d="m948.85,138.48V39.22h22.4v99.26h-22.4Z"/>
    <path class="cls-4" d="m1052.03,118.32h-38.36l-7.14,20.16h-23.24l37.38-99.26h25.62l36.96,99.26h-24.08l-7.14-20.16Zm-31.08-20.16h24.08l-11.9-34.3-12.18,34.3Z"/>
  </g>
</svg>