<?xml version="1.0" encoding="UTF-8"?>
<svg id="Layer_2" data-name="Layer 2" xmlns="http://www.w3.org/2000/svg" viewBox="0 0 418.3 418.3">
  <defs>
    <style>
      .cls-1 {
        fill: #f59051;
      }
    </style>
  </defs>
  <path class="cls-1" d="m277.85,215.87c-.07-2.33-.7-16.35-12.41-26.52-13.66-11.86-30.57-8.22-32.31-7.81-11.59-7-23.19-14-34.78-21,6.11-3.83,17.22-9.63,32.12-11.25,3.21-.35,31.4-3,53.36,14.6,23.01,18.44,31.57,53.01,20.66,86.08-8.88-11.37-17.77-22.73-26.65-34.1Z"/>
  <path class="cls-1" d="m169.04,133.64s12.62-1.26,15.98-10.51c3.36-9.25,10.51-31.12,10.51-31.12l79.48.84,12.19,29.86s2.52,10.09,15.56,10.93h60.55c1.71-.06,4.19.15,5.97,1.8,2.23,2.07,2.26,5.38,2.26,6.77-.02,6.3-.4,66.46-1.08,149.11,10.4,8.06,20.79,16.12,31.19,24.18-.58-60.06-1.17-120.12-1.75-180.19-.46-3.58-1.76-9.55-5.89-15.49-8.47-12.19-22.09-14.55-24.95-14.99-12.64-.01-25.4-.12-38.28-.34-3.89-.07-7.77-.14-11.63-.23-1.9-.6-4.88-1.8-7.68-4.29-6.81-6.06-5.82-13.83-9.75-21.02-2.45-4.49-7.64-10.25-20.06-14.1-21.61-3.63-52.31-6.68-82.2-1.58-13.19,2.25-18.68,4.8-22.92,9.03-11.75,11.74-6.79,29.31-19.08,37.83-5.11,3.54-10.92,3.95-14.68,3.84,8.76,6.55,17.51,13.1,26.27,19.65Z"/>
  <g>
    <line class="cls-1" x1="142.24" y1="126.41" x2="389.15" y2="314.75"/>
    <path class="cls-1" d="m389.14,327.14c-2.62,0-5.26-.83-7.5-2.54l-246.91-188.35c-5.44-4.15-6.48-11.92-2.34-17.36,4.15-5.44,11.92-6.48,17.36-2.34l246.91,188.35c5.44,4.15,6.48,11.92,2.34,17.36-2.44,3.19-6.12,4.87-9.85,4.87Z"/>
  </g>
  <g>
    <line class="cls-1" x1="123.31" y1="152.41" x2="370.22" y2="340.76"/>
    <path class="cls-1" d="m370.21,353.14c-2.62,0-5.26-.83-7.5-2.54L115.8,162.26c-5.44-4.15-6.48-11.92-2.34-17.36,4.15-5.44,11.92-6.48,17.36-2.34l246.91,188.35c5.44,4.15,6.48,11.92,2.34,17.36-2.44,3.19-6.12,4.87-9.85,4.87Z"/>
  </g>
  <path class="cls-1" d="m329.64,322.71c14.05,10.26,28.11,20.51,42.16,30.77-71.95,1.41-143.91,2.82-215.86,4.23,0,0-38.04-4.68-43.31-43.43-.79-40.64-2.22-160.78-2.22-160.78l37.64,30.89,3.3,123.72s.27,3.48,2.9,7.08c5.02,6.88,14.9,7.6,19.98,7.84,14.77.68,74.27.85,155.4-.3Z"/>
  <circle class="cls-1" cx="174.11" cy="302.23" r="7.23"/>
  <circle class="cls-1" cx="343.98" cy="155.55" r="12.2"/>
  <path class="cls-1" d="m45.84,320.48l-1.15-63.06,1.15-63.06,67.79,31.18.05-29.94c-22.25-10.88-44.51-21.77-66.76-32.65-24.88-3.95-28.76,17.44-28.76,17.44,0,0-.69,37.5-1.48,76.55h-.02c0,.16,0,.32.01.49,0,.16,0,.32-.01.49h.02c.8,39.05,1.48,76.55,1.48,76.55,0,0,3.88,21.38,28.76,17.44,22.25-10.88,44.51-21.77,66.76-32.65l-.05-29.94-67.79,31.18Z"/>
</svg>