<?xml version="1.0" encoding="UTF-8"?>
<svg id="Layer_2" data-name="Layer 2" xmlns="http://www.w3.org/2000/svg" viewBox="0 0 418.3 418.3">
  <defs>
    <style>
      .cls-1 {
        fill: #fff;
      }

      .cls-2 {
        fill: #f59051;
      }
    </style>
  </defs>
  <path class="cls-2" d="m179.58,56.77l31.66,31.09h90.1v230.87H115.82V81.67s-18.78-25.91-33.68-.65c.65,30.44,0,291.46,0,291.46,0,0-1.94,17.49,16.19,18.14h226.04s13.6-1.94,11.66-12.95c0-12.95-.65-310.89-.65-310.89,0,0-3.24-12.31-15.54-10.36-14.25,0-140.26.36-140.26.36Z"/>
  <circle class="cls-1" cx="208.18" cy="354.96" r="15.58"/>
  <path class="cls-2" d="m123.96,52.37l111.27,113.68,24.15,3.24.45-26.55L147.9,30.34s-10.96-5.71-20.08-.39c-9.11,5.32-6.21,19.16-3.87,22.42Z"/>
  <path class="cls-2" d="m184.63,293c0,.52-1.11,1.04-3.25,1.44-2.14.39-5.32.64-9.44.46-2.05-.1-4.32-.26-6.93-.73-2.58-.48-5.43-1.22-8.45-2.72-1.51-.76-3.05-1.74-4.53-3.06-1.47-1.31-2.86-2.99-3.88-5.01-1.03-1.99-1.65-4.42-1.72-6.79-.09-2.4.33-4.8,1.15-7.04.82-2.25,2-4.39,3.59-6.31.79-.97,1.67-1.88,2.66-2.72.96-.82,1.96-1.55,3.02-2.21,4.26-2.66,9.11-3.97,13.89-4.52,1.2-.14,2.4-.22,3.61-.27,1.22-.04,2.64-.05,4.26.16.81.11,1.67.28,2.56.55.9.26,1.79.63,2.6,1.04,1.62.82,2.97,1.82,4.12,2.83,1.16,1.02,2.08,2.02,2.97,3.01.89,1,1.67,2,2.44,2.98,1.5,1.96,2.81,3.81,4.09,5.39,1.27,1.58,2.51,2.87,3.73,3.78,1.2.9,2.7,1.66,4.49,2.31,1.79.65,3.86,1.17,6.14,1.65,2.28.49,4.4.85,6.23.92,1.82.08,3.42-.15,4.46-.58,1.16-.45,2.09-1.25,2.36-1.75.09-.12.12-.23.16-.32.02-.09.06-.18.08-.37.05-.37.07-1.05-.05-1.99-.11-.93-.32-2.19-.53-3.22-.22-1.07-.49-2.08-.81-3.01-.65-1.9-1.39-3.32-2.52-4.73-1.11-1.41-2.57-2.75-4.26-4-3.41-2.52-7.65-4.52-12.34-6.77-4.66-2.27-9.72-4.78-14.37-8.75-2.29-1.98-4.37-4.23-6.12-6.83-1.74-2.59-3.16-5.55-3.9-8.8-.79-3.22-.77-6.73-.11-9.87.69-3.14,1.93-5.99,3.52-8.43,1.58-2.45,3.45-4.56,5.53-6.34,1.02-.91,2.13-1.7,3.24-2.44,1.11-.71,2.21-1.35,3.34-1.91,4.51-2.25,9.02-3.37,13.18-4.06,2.09-.34,4.11-.56,6.06-.72,1.94-.15,3.7-.25,5.31-.4,1.61-.14,3.06-.34,4.35-.64,1.3-.29,2.39-.67,3.4-1.19,1-.5,1.84-1.11,2.49-1.75.65-.65,1.09-1.31,1.41-2.08.63-1.55.66-3.6.27-5.52-.37-1.93-1.07-3.79-1.81-5.17-.75-1.39-1.65-2.44-2.53-3.12-.92-.7-1.89-1.12-2.71-1.34-1.69-.46-2.85-.24-3.07-.75-.11-.23.01-.63.48-1.08.46-.45,1.28-.98,2.53-1.25,1.25-.28,2.9-.28,4.74.32,1.87.62,3.74,1.89,5.35,3.67,1.61,1.81,2.93,3.92,4,6.57.53,1.33.96,2.81,1.19,4.47.24,1.65.24,3.5-.17,5.44-.41,1.94-1.31,3.93-2.55,5.61-1.24,1.69-2.79,3.12-4.5,4.28-1.69,1.16-3.63,2.09-5.56,2.76-1.93.68-3.87,1.13-5.76,1.49-1.89.36-3.73.63-5.47.93-1.72.3-3.44.64-5.13,1.06-3.38.83-6.67,1.98-9.51,3.66-.71.41-1.39.87-2.03,1.35-.61.47-1.21.96-1.76,1.52-1.12,1.09-2.09,2.35-2.83,3.67-.76,1.31-1.22,2.7-1.44,4.02-.17,1.33-.14,2.54.26,3.85.71,2.59,2.8,5.47,5.73,7.81,2.88,2.33,6.85,4.33,11.37,6.39,2.27,1.05,4.68,2.12,7.2,3.41,2.53,1.29,5.12,2.77,7.68,4.6,2.55,1.84,5.08,4.05,7.28,6.81,1.11,1.36,2.11,2.9,2.98,4.5.85,1.6,1.54,3.24,2.08,4.86.55,1.62.96,3.22,1.28,4.77.32,1.59.56,2.98.75,4.69.18,1.7.28,3.7-.06,5.94-.17,1.12-.48,2.3-.9,3.46-.44,1.13-.98,2.22-1.62,3.19-1.27,1.96-2.84,3.55-4.51,4.79-1.67,1.24-3.44,2.2-5.28,2.88-3.81,1.42-7.44,1.61-10.68,1.42-3.25-.21-6.1-.82-8.68-1.43-2.59-.62-5.32-1.36-8.1-2.46-2.77-1.1-5.62-2.6-8.17-4.67-2.54-2.06-4.45-4.36-6.02-6.48-1.56-2.13-2.83-4.1-4.03-5.82-.59-.84-1.17-1.66-1.74-2.36-.57-.71-1.14-1.38-1.62-1.85-.49-.49-.91-.82-1.22-1.01-.16-.1-.27-.16-.4-.22-.14-.06-.34-.12-.59-.18-.95-.23-3.1-.25-4.78-.18-3.48.16-6.61.84-9.03,2.09-.61.3-1.19.66-1.7,1.02-.48.34-.95.73-1.38,1.16-.87.85-1.56,1.87-2.08,2.88-.52,1.02-.81,2.07-.9,3.03-.08.98-.01,1.83.3,2.73.58,1.76,2,3.38,3.85,4.69,1.85,1.3,3.98,2.29,6.04,3.07,2.04.77,4.11,1.36,5.96,1.89,7.41,2.05,11.78,2.88,11.76,3.99Z"/>
</svg>