<?xml version="1.0" encoding="UTF-8"?>
<svg id="Layer_2" data-name="Layer 2" xmlns="http://www.w3.org/2000/svg" viewBox="0 0 418.3 418.3">
  <defs>
    <style>
      .cls-1 {
        fill: #f59051;
      }
    </style>
  </defs>
  <path class="cls-1" d="m122.62,286.82s8.32,10.47,25.77,9.13c16.64-3.22,17.45-6.71,23.09-5.64s9.4,8.05,9.4,8.05c0,0,13.69,13.96,21.75,14.5-25.77,62.55-38.93,95.04-38.93,95.04,0,0-3.49,5.64-7.79.81-4.3-4.83-21.21-34.63-21.21-34.63,0,0-2.95-2.95-6.71-1.34-4.83,1.07-36.78,8.86-36.78,8.86,0,0-5.91-.27-5.1-6.17,2.15-5.37,36.51-88.59,36.51-88.59Z"/>
  <path class="cls-1" d="m216.04,312.32s14.5-6.98,18.26-11.28,8.59-8.59,8.59-8.59c0,0,2.68-3.22,7.25-1.88s24.7,5.91,27.92,4.56c3.22-1.34,11.54.54,17.99-8.59,8.59,17.45,27.11,55.57,27.11,55.57,0,0,1.61,8.86-5.1,7.52-6.71-1.34-39.46-7.52-39.46-7.52,0,0-2.95-.27-4.3,2.42s-19.87,35.44-19.87,35.44c0,0-3.22,3.22-6.71.81-1.61-4.03-31.68-68.46-31.68-68.46Z"/>
  <path class="cls-1" d="m343.56,134.87c-10.74-11.28-12.89-15.03-8.05-37.58,4.83-22.55-13.42-24.43-23.62-27.65-10.2-3.22-17.18-7.25-19.6-23.62-7.79-28.46-17.18-17.99-36.24-16.11-19.06,1.88-16.38,0-32.48-14.5-16.11-14.5-22.01-5.91-31.95,3.22-9.93,9.13-10.47,14.5-37.05,8.59-26.58-5.91-22.01,6.44-29.53,23.62-7.52,17.18-9.66,14.5-29.8,21.48-20.13,6.98-12.62,16.64-9.4,33.29,3.22,16.64-1.61,18.79-14.5,31.95-12.89,13.15-7.25,28.19,6.17,36.78,7.52,12.35,9.4,13.15,5.1,34.36-4.3,21.21,8.59,25.5,22.28,28.19,13.69,2.68,18.79,12.89,21.75,27.38,2.95,14.5,10.2,20.94,31.95,14.77,19.33-6.98,28.19,5.64,28.19,5.64,24.43,32.48,42.15,2.42,49.13-3.22,6.98-5.64,6.17-8.05,30.6-1.61,24.43,6.44,20.67-8.86,27.65-26.58,6.98-17.72,12.62-11.81,31.14-18.52,18.52-6.71,10.47-17.72,8.86-32.48-1.61-14.77-2.68-17.72,11.54-32.22,14.23-14.5,8.59-23.89-2.15-35.17Zm-134.28,117.05c-54.59,0-98.84-44.25-98.84-98.84s44.25-98.84,98.84-98.84,98.84,44.25,98.84,98.84-44.25,98.84-98.84,98.84Z"/>
  <path class="cls-1" d="m145.79,160.91s-6.44-7.16,10.38-8.95,21.48,2.86,21.48,2.86l17.9,16.82s21.12-55.84,47.25-74.1c14.68-5.37,28.99,2.15,28.99,2.15,0,0,3.94,3.58,1.79,6.09-3.22,1.07-42.24,44.74-52.98,100.58-4.3,8.95-31.86,2.86-32.93,1.79s-24.34-32.22-41.88-47.25Z"/>
</svg>