<?xml version="1.0" encoding="UTF-8"?>
<svg id="Layer_2" data-name="Layer 2" xmlns="http://www.w3.org/2000/svg" viewBox="0 0 418.3 418.3">
  <defs>
    <style>
      .cls-1 {
        stroke-width: 10px;
      }

      .cls-1, .cls-2, .cls-3 {
        fill: none;
        stroke: #f59051;
      }

      .cls-1, .cls-3 {
        stroke-miterlimit: 10;
      }

      .cls-2 {
        stroke-linejoin: round;
        stroke-width: 5px;
      }

      .cls-2, .cls-3 {
        stroke-linecap: round;
      }

      .cls-4 {
        fill: #f59051;
      }

      .cls-3 {
        stroke-width: 20px;
      }
    </style>
  </defs>
  <path class="cls-4" d="m336.91,68.91c6.6,0,12,5.4,12,12v256.47c0,6.6-5.4,12-12,12H80.44c-6.6,0-12-5.4-12-12V80.91c0-6.6,5.4-12,12-12h256.47m0-25H80.44c-20.4,0-37,16.6-37,37v256.47c0,20.4,16.6,37,37,37h256.47c20.4,0,37-16.6,37-37V80.91c0-20.4-16.6-37-37-37h0Z"/>
  <line class="cls-3" x1="175.96" y1="149.1" x2="241.39" y2="149.1"/>
  <line class="cls-3" x1="101.42" y1="97.4" x2="166.85" y2="97.4"/>
  <rect class="cls-1" x="93.7" y="280.12" width="102.99" height="50.26" rx="12" ry="12"/>
  <rect class="cls-1" x="221.28" y="280.12" width="102.99" height="50.26" rx="12" ry="12"/>
  <line class="cls-1" x1="196.93" y1="284.42" x2="93.81" y2="326.66"/>
  <line class="cls-1" x1="324.48" y1="284.42" x2="221.37" y2="326.66"/>
  <line class="cls-1" x1="197.21" y1="325.55" x2="94.09" y2="283.31"/>
  <line class="cls-1" x1="324.76" y1="327.21" x2="221.64" y2="284.97"/>
  <rect class="cls-1" x="106.93" y="167.99" width="203.66" height="99.39" rx="12" ry="12"/>
  <line class="cls-1" x1="310.7" y1="176.49" x2="106.8" y2="260.02"/>
  <line class="cls-1" x1="310.7" y1="261.11" x2="106.8" y2="177.58"/>
  <line class="cls-2" x1="297.15" y1="90.19" x2="327.8" y2="90.19"/>
  <line class="cls-2" x1="297.15" y1="97.23" x2="327.8" y2="97.23"/>
  <line class="cls-2" x1="297.15" y1="103.86" x2="327.8" y2="103.86"/>
  <line class="cls-1" x1="56.13" y1="119.96" x2="358.44" y2="119.96"/>
  <circle class="cls-4" cx="261.93" cy="149.69" r="7.06"/>
</svg>